HIERARCHY
ROOT Hips
{
	OFFSET 0.00000 0.00000 0.00000
	CHANNELS 6 Xposition Yposition Zposition Zrotation Yrotation Xrotation 
	JOINT LHipJoint
	{
		OFFSET 0 0 0
		CHANNELS 3 Zrotation Yrotation Xrotation
		JOINT LeftUpLeg
		{
			OFFSET 1.61024 -1.73873 0.75100
			CHANNELS 3 Zrotation Yrotation Xrotation
			JOINT LeftLeg
			{
				OFFSET 2.29819 -6.31424 0.00000
				CHANNELS 3 Zrotation Yrotation Xrotation
				JOINT LeftFoot
				{
					OFFSET 2.76618 -7.60002 0.00000
					CHANNELS 3 Zrotation Yrotation Xrotation
					JOINT LeftToeBase
					{
						OFFSET 0.16838 -0.46263 2.02361
						CHANNELS 3 Zrotation Yrotation Xrotation
						End Site
						{
							OFFSET 0.00000 -0.00000 1.04662
						}
					}
				}
			}
		}
	}
	JOINT RHipJoint
	{
		OFFSET 0 0 0
		CHANNELS 3 Zrotation Yrotation Xrotation
		JOINT RightUpLeg
		{
			OFFSET -1.46153 -1.73873 0.75100
			CHANNELS 3 Zrotation Yrotation Xrotation
			JOINT RightLeg
			{
				OFFSET -2.38373 -6.54924 0.00000
				CHANNELS 3 Zrotation Yrotation Xrotation
				JOINT RightFoot
				{
					OFFSET -2.80314 -7.70157 0.00000
					CHANNELS 3 Zrotation Yrotation Xrotation
					JOINT RightToeBase
					{
						OFFSET -0.16142 -0.44349 2.02101
						CHANNELS 3 Zrotation Yrotation Xrotation
						End Site
						{
							OFFSET -0.00000 -0.00000 1.04381
						}
					}
				}
			}
		}
	}
	JOINT LowerBack
	{
		OFFSET 0 0 0
		CHANNELS 3 Zrotation Yrotation Xrotation
		JOINT Spine
		{
			OFFSET -0.01629 1.66985 0.14750
			CHANNELS 3 Zrotation Yrotation Xrotation
			JOINT Spine1
			{
				OFFSET 0.02086 1.62378 0.20980
				CHANNELS 3 Zrotation Yrotation Xrotation
				JOINT Neck
				{
					OFFSET 0 0 0
					CHANNELS 3 Zrotation Yrotation Xrotation
					JOINT Neck1
					{
						OFFSET -0.05690 1.78719 0.08702
						CHANNELS 3 Zrotation Yrotation Xrotation
						JOINT Head
						{
							OFFSET 0.16035 1.73871 -0.38470
							CHANNELS 3 Zrotation Yrotation Xrotation
							End Site
							{
								OFFSET 0.05645 1.80914 -0.14081
							}
						}
					}
				}
				JOINT LeftShoulder
				{
					OFFSET 0 0 0
					CHANNELS 3 Zrotation Yrotation Xrotation
					JOINT LeftArm
					{
						OFFSET 2.83089 1.66494 -0.46008
						CHANNELS 3 Zrotation Yrotation Xrotation
						JOINT LeftForeArm
						{
							OFFSET 5.54893 -0.00000 -0.00000
							CHANNELS 3 Zrotation Yrotation Xrotation
							JOINT LeftHand
							{
								OFFSET 3.02898 -0.00000 -0.00000
								CHANNELS 3 Zrotation Yrotation Xrotation
								JOINT LeftFingerBase
								{
									OFFSET 0 0 0
									CHANNELS 3 Zrotation Yrotation Xrotation
									JOINT LeftHandIndex1
									{
										OFFSET 0.64095 -0.00000 -0.00000
										CHANNELS 3 Zrotation Yrotation Xrotation
										End Site
										{
											OFFSET 0.51675 -0.00000 -0.00000
										}
									}
								}
								JOINT LThumb
								{
									OFFSET 0 0 0
									CHANNELS 3 Zrotation Yrotation Xrotation
									End Site
									{
										OFFSET 0.52464 -0.00000 0.52464
									}
								}
							}
						}
					}
				}
				JOINT RightShoulder
				{
					OFFSET 0 0 0
					CHANNELS 3 Zrotation Yrotation Xrotation
					JOINT RightArm
					{
						OFFSET -2.84442 1.45761 -0.18088
						CHANNELS 3 Zrotation Yrotation Xrotation
						JOINT RightForeArm
						{
							OFFSET -5.35190 -0.00000 -0.00000
							CHANNELS 3 Zrotation Yrotation Xrotation
							JOINT RightHand
							{
								OFFSET -3.02531 -0.00000 -0.00000
								CHANNELS 3 Zrotation Yrotation Xrotation
								JOINT RightFingerBase
								{
									OFFSET 0 0 0
									CHANNELS 3 Zrotation Yrotation Xrotation
									JOINT RightHandIndex1
									{
										OFFSET -0.78389 -0.00000 -0.00000
										CHANNELS 3 Zrotation Yrotation Xrotation
										End Site
										{
											OFFSET -0.63199 -0.00000 -0.00000
										}
									}
								}
								JOINT RThumb
								{
									OFFSET 0 0 0
									CHANNELS 3 Zrotation Yrotation Xrotation
									End Site
									{
										OFFSET -0.64164 -0.00000 0.64164
									}
								}
							}
						}
					}
				}
			}
		}
	}
}
MOTION
Frames: 12
Frame Time: .0083333
0.3902 17.8347 0.1085 0 0 0 0 0 0 -21 0 0 0 0 0 0 0 0 0 0 0 0 0 0 21 0 0 0 0 0 0 0 0 0 0 0 0 0 0 0 0 0 0 0 0 0 0 -16 0 0 21 0 0 11 0 0 0 -8 0 0 0 0 0 0 0 0 0 0 0 0 0 0 0 0 0 0 0 0 8 0 0 0 0 0 0 0 0 0 0 0 0 0 0 0 0 0
0.3902 17.8347 0.1085 -51.5247 87.6216 -33.6904 0.0000 0.0000 0.0000 -15.0792 -22.9944 -0.4081 0.0000 0.0000 0.0000 -1.5027 23.8945 -21.3047 0.1167 -2.2021 -6.0646 0.0000 0.0000 0.0000 16.7885 16.9768 -10.6745 -0.3692 -3.9027 10.8030 0.3453 -16.2703 -19.3365 -0.6150 5.0192 -13.9632 -3.5408 -1.4263 -10.4057 1.6845 -1.0499 -10.6538 3.6691 0.0250 -5.2736 -6.3120 -2.4271 -8.8784 9.9537 -3.9507 18.9389 3.9969 -1.3256 7.5847 -0.0000 0.0000 0.0000 -87.7936 20.1948 -6.6844 15.9349 -25.4323 -3.6180 -0.0000 0.0000 -3.3966 20.4855 9.7480 3.6195 -7.1250 0.0000 -0.0000 -5.7188 40.3077 0.6641 -0.0000 0.0000 0.0000 83.1928 -17.5812 -26.2489 -8.4922 14.3475 -1.0708 0.0000 0.0000 15.3920 -32.5406 28.8626 -17.1189 7.1250 -0.0000 -0.0000 -1.0529 3.1927 -1.1101
0.3923 17.8359 0.1069 -52.3129 87.6618 -34.4741 0.0000 0.0000 0.0000 -15.0794 -23.0512 -0.4136 0.0000 -0.0000 -0.0000 -1.5001 23.8856 -21.3140 0.1113 -2.1515 -5.9245 0.0000 0.0000 0.0000 16.7859 16.8714 -10.7040 -0.3696 -3.9048 10.8089 0.3422 -16.2283 -19.3025 -0.6262 5.0638 -14.0907 -3.4830 -1.4413 -10.4727 1.6775 -1.0711 -10.6385 3.6269 0.0087 -5.2185 -6.3381 -2.4187 -8.9337 9.9717 -3.9414 19.0558 4.0108 -1.3170 7.6329 0.0000 -0.0000 0.0000 -87.6937 20.0529 -6.3755 16.0422 -25.5779 -3.6642 -0.0000 0.0000 -3.9191 20.5456 9.9429 3.7027 -7.1250 0.0000 -0.0000 -5.6950 40.5188 0.6316 0.0000 -0.0000 0.0000 83.1587 -17.6614 -25.4523 -8.7013 14.6831 -1.1232 0.0000 0.0000 15.6373 -32.0167 28.5706 -16.6483 7.1250 -0.0000 -0.0000 -0.8098 2.7275 -0.8475
0.3930 17.8365 0.1058 -53.6986 87.6725 -35.8963 0.0000 0.0000 0.0000 -15.0592 -23.0824 -0.3656 0.0000 0.0000 0.0000 -1.4973 23.8826 -21.3422 0.1113 -2.1513 -5.9239 0.0000 0.0000 0.0000 16.8290 16.8596 -10.6471 -0.3689 -3.9015 10.7997 0.3400 -16.2353 -19.3421 -0.6137 5.0136 -13.9475 -3.4219 -1.4397 -10.4681 1.6793 -1.0746 -10.6131 3.5941 0.0011 -5.1934 -6.2580 -2.4131 -8.9485 9.8909 -3.9325 19.0932 3.9714 -1.3130 7.6442 0.0000 -0.0000 0.0000 -87.6086 19.9546 -5.9517 16.2156 -25.8121 -3.7394 -0.0000 0.0000 -4.4509 20.6876 10.0595 3.7737 -7.1250 0.0000 -0.0000 -5.5880 40.6546 0.6009 0.0000 -0.0000 0.0000 83.1046 -17.8592 -23.8059 -8.9395 15.0639 -1.1843 0.0000 0.0000 14.8323 -31.6439 28.5334 -16.4029 7.1250 -0.0000 -0.0000 -0.6023 2.5836 -0.6289
0.3950 17.8374 0.1050 -54.3746 87.6706 -36.5773 0.0000 0.0000 0.0000 -15.0460 -23.0918 -0.3434 0.0000 0.0000 0.0000 -1.4848 23.8536 -21.4242 0.1029 -2.0682 -5.6941 0.0000 0.0000 0.0000 16.8654 16.7919 -10.6576 -0.3694 -3.9038 10.8062 0.3500 -16.2640 -19.2667 -0.6403 5.1192 -14.2488 -3.3207 -1.4222 -10.5415 1.6494 -1.0562 -10.5928 3.5055 0.0008 -5.1336 -6.1680 -2.4017 -8.9618 9.8309 -3.9223 19.1673 3.9384 -1.3044 7.6673 0.0000 0.0000 0.0000 -87.5036 19.9069 -5.5920 16.4268 -26.0960 -3.8318 -0.0000 0.0000 -4.9002 20.7118 10.0173 3.7629 -7.1250 0.0000 -0.0000 -5.5606 40.6122 0.6038 0.0000 0.0000 0.0000 83.1338 -18.0486 -22.6053 -9.1566 15.4096 -1.2414 0.0000 0.0000 14.2229 -31.0133 28.7105 -16.1085 7.1250 -0.0000 -0.0000 -0.2052 2.6018 -0.2143
0.3966 17.8375 0.1073 -53.9406 87.6796 -36.1548 0.0000 0.0000 0.0000 -15.0759 -23.0866 -0.3312 0.0000 -0.0000 -0.0000 -1.5295 23.9994 -21.2419 0.1265 -2.2928 -6.3156 0.0000 0.0000 0.0000 16.8657 16.7882 -10.6456 -0.3687 -3.9005 10.7969 0.3812 -16.3946 -19.1037 -0.6990 5.3442 -14.8929 -3.3576 -1.4160 -10.5767 1.6498 -1.0452 -10.5751 3.5268 0.0073 -5.0957 -6.1432 -2.3928 -9.0064 9.8143 -3.9130 19.2529 3.9312 -1.2963 7.7019 0.0000 -0.0000 0.0000 -87.4291 19.8527 -5.2696 16.6136 -26.3455 -3.9143 -0.0000 0.0000 -5.3826 20.7293 9.8324 3.6977 -7.1250 0.0000 -0.0000 -5.5182 40.4179 0.6256 0.0000 -0.0000 0.0000 83.1529 -18.2288 -21.4564 -9.3795 15.7632 -1.3013 0.0000 0.0000 13.8314 -30.6565 28.8484 -15.9599 7.1250 -0.0000 -0.0000 0.0263 2.6537 0.0275
0.3996 17.8367 0.1103 -54.3567 87.6838 -36.5936 0.0000 0.0000 0.0000 -15.0650 -23.0878 -0.2944 0.0000 -0.0000 -0.0000 -1.5222 23.9756 -21.2718 0.1208 -2.2403 -6.1704 0.0000 0.0000 0.0000 16.8828 16.9796 -10.5643 -0.3722 -3.9184 10.8472 0.3966 -16.5634 -19.2089 -0.7187 5.4176 -15.1035 -3.3686 -1.4308 -10.6057 1.6650 -1.0621 -10.5769 3.5476 0.0002 -5.0801 -6.0976 -2.3840 -9.0312 9.7566 -3.9015 19.3768 3.9078 -1.2887 7.7443 0.0000 -0.0000 0.0000 -87.3559 19.8392 -5.0224 16.7606 -26.5411 -3.9798 -0.0000 0.0000 -5.7313 20.7367 9.8466 3.7044 -7.1250 0.0000 -0.0000 -5.5138 40.4335 0.6230 0.0000 -0.0000 0.0000 83.1863 -18.4697 -19.7966 -9.6679 16.2184 -1.3807 0.0000 0.0000 13.0690 -30.9137 28.9337 -16.1565 7.1250 -0.0000 -0.0000 -0.1055 2.8151 -0.1105
0.4023 17.8351 0.1120 -55.1523 87.6435 -37.3736 0.0000 0.0000 0.0000 -14.9963 -23.0757 -0.3099 0.0000 -0.0000 -0.0000 -1.5174 23.9609 -21.2943 0.1156 -2.1925 -6.0380 0.0000 0.0000 0.0000 16.9414 17.0865 -10.5569 -0.3754 -3.9350 10.8938 0.4036 -16.6596 -19.2925 -0.7152 5.4044 -15.0657 -3.3560 -1.5079 -10.6744 1.7805 -1.1570 -10.5998 3.6555 -0.0425 -5.0577 -6.1609 -2.3128 -9.0645 9.6886 -3.7855 19.5464 3.9106 -1.2398 7.7957 -0.0000 -0.0000 0.0000 -87.4753 19.8841 -4.9291 16.8917 -26.7147 -4.0385 -0.0000 0.0000 -6.0356 20.9577 9.9750 3.7957 -7.1250 0.0000 -0.0000 -5.3390 40.5889 0.5826 -0.0000 -0.0000 0.0000 82.9800 -18.6828 -17.7890 -9.9501 16.6614 -1.4606 0.0000 0.0000 12.2178 -31.0206 29.0284 -16.2673 7.1250 -0.0000 -0.0000 -0.1488 2.9460 -0.1563
0.4036 17.8355 0.1106 -53.8926 87.6932 -36.1198 0.0000 0.0000 0.0000 -15.0941 -23.0810 -0.2828 0.0000 0.0000 0.0000 -1.4821 23.8625 -21.4812 0.1018 -2.0579 -5.6656 0.0000 0.0000 0.0000 16.8661 17.0104 -10.5783 -0.3772 -3.9443 10.9201 0.3914 -16.5884 -19.3185 -0.7052 5.3673 -14.9592 -3.4171 -1.6092 -10.7134 1.8787 -1.2845 -10.5925 3.7847 -0.1003 -5.0149 -6.2921 -2.2181 -9.0633 9.6538 -3.6289 19.6132 3.9380 -1.1775 7.8049 0.0000 -0.0000 0.0000 -87.6751 19.8981 -4.9149 17.0181 -26.8816 -4.0955 -0.0000 0.0000 -6.3994 21.2301 9.9022 3.8220 -7.1250 0.0000 -0.0000 -5.0901 40.5357 0.5620 0.0000 -0.0000 0.0000 82.6975 -18.8215 -16.0092 -10.2230 17.0877 -1.5398 0.0000 0.0000 11.5026 -30.6347 29.3879 -16.2045 7.1250 -0.0000 -0.0000 0.1411 3.2268 0.1488
0.4023 17.8361 0.1069 -53.8818 87.6922 -36.1091 0.0000 0.0000 0.0000 -15.1199 -23.0841 -0.2794 0.0000 0.0000 0.0000 -1.5208 23.9995 -21.3540 0.1264 -2.2919 -6.3131 0.0000 0.0000 0.0000 16.8588 16.9337 -10.6216 -0.3798 -3.9578 10.9580 0.3957 -16.5826 -19.2543 -0.7210 5.4258 -15.1271 -3.3157 -1.5921 -10.6996 1.8706 -1.2686 -10.5995 3.7203 -0.0985 -5.0327 -6.3346 -2.2157 -9.0548 9.6895 -3.6268 19.6515 3.9586 -1.1754 7.8171 -0.0000 -0.0000 0.0000 -87.6219 19.7876 -4.8626 17.0412 -26.9121 -4.1060 -0.0000 0.0000 -6.4289 21.3769 9.8111 3.8160 -7.1250 0.0000 -0.0000 -4.9488 40.4517 0.5565 -0.0000 -0.0000 0.0000 82.6567 -19.0060 -14.3946 -10.5211 17.5505 -1.6286 0.0000 0.0000 10.4704 -30.7238 29.4075 -16.2683 7.1250 -0.0000 -0.0000 0.0939 3.2720 0.0991
0.4000 17.8358 0.1051 -53.3426 87.7148 -35.5754 0.0000 0.0000 0.0000 -15.1645 -23.0908 -0.2729 0.0000 -0.0000 -0.0000 -1.5240 23.9994 -21.3125 0.1253 -2.2822 -6.2862 0.0000 0.0000 0.0000 16.8202 16.8775 -10.6672 -0.3830 -3.9741 11.0039 0.3906 -16.5251 -19.2165 -0.7266 5.4466 -15.1868 -3.2993 -1.6354 -10.6458 1.9260 -1.3263 -10.6278 3.7670 -0.1242 -5.0871 -6.4579 -2.1600 -9.0747 9.7227 -3.5380 19.7310 4.0016 -1.1372 7.8413 -0.0000 -0.0000 0.0000 -87.6892 19.7205 -5.0862 17.0395 -26.9098 -4.1052 -0.0000 0.0000 -6.1711 21.1810 9.6171 3.7039 -7.1250 0.0000 -0.0000 -5.0933 40.2284 0.6009 -0.0000 -0.0000 0.0000 82.4598 -19.1765 -12.6630 -10.7914 17.9679 -1.7110 0.0000 0.0000 9.5112 -30.4697 29.0829 -15.9591 7.1250 -0.0000 -0.0000 0.1779 2.8552 0.1865
0.4020 17.8370 0.1060 -52.4293 87.6965 -34.6627 0.0000 0.0000 0.0000 -15.1847 -23.0493 -0.2625 0.0000 0.0000 0.0000 -1.5440 24.0478 -21.1858 0.1365 -2.3809 -6.5595 0.0000 0.0000 0.0000 16.7955 17.0098 -10.6350 -0.3846 -3.9825 11.0276 0.3691 -16.4696 -19.3876 -0.6934 5.3232 -14.8326 -3.3369 -1.6931 -10.6679 2.0145 -1.3968 -10.6364 3.8768 -0.1536 -5.0761 -6.5264 -2.0730 -9.1097 9.7210 -3.4070 19.7970 4.0270 -1.0784 7.8585 0.0000 0.0000 0.0000 -87.7991 19.7115 -5.1558 17.1134 -27.0070 -4.1387 -0.0000 0.0000 -6.2035 21.2235 9.3824 3.6225 -7.1250 0.0000 -0.0000 -5.0243 39.9827 0.6232 0.0000 0.0000 0.0000 82.2585 -19.2279 -11.4110 -10.9741 18.2485 -1.7678 0.0000 0.0000 9.1221 -29.8219 29.1851 -15.6166 7.1250 -0.0000 -0.0000 0.5692 2.7920 0.5963
